<mxfile host="app.diagrams.net" modified="2024-05-04T15:45:26.299Z" agent="Mozilla/5.0 (Windows NT 10.0; Win64; x64) AppleWebKit/537.36 (KHTML, like Gecko) Chrome/124.0.0.0 Safari/537.36 Edg/124.0.0.0" etag="3eBEyoUDtrbYYnlbfunN" version="24.3.1" type="github" pages="3">
  <diagram name="Page-1" id="FDeaAZcfkvpqaY_wTCAR">
    <mxGraphModel dx="1143" dy="655" grid="1" gridSize="10" guides="1" tooltips="1" connect="1" arrows="1" fold="1" page="1" pageScale="1" pageWidth="850" pageHeight="1100" math="0" shadow="0">
      <root>
        <mxCell id="0" />
        <mxCell id="1" parent="0" />
        <mxCell id="lJrmNlTLN4UnMx10Zhjj-2" style="edgeStyle=orthogonalEdgeStyle;rounded=0;orthogonalLoop=1;jettySize=auto;html=1;exitX=-0.004;exitY=0.621;exitDx=0;exitDy=0;exitPerimeter=0;endArrow=circle;endFill=0;" parent="1" source="lJrmNlTLN4UnMx10Zhjj-1" edge="1">
          <mxGeometry relative="1" as="geometry">
            <mxPoint x="310" y="122" as="targetPoint" />
          </mxGeometry>
        </mxCell>
        <mxCell id="lJrmNlTLN4UnMx10Zhjj-1" value="&lt;span style=&quot;font-weight: normal;&quot;&gt;&amp;lt;&amp;lt;subsystem&amp;gt;&amp;gt;&lt;/span&gt;&lt;div&gt;HotelSystem&lt;/div&gt;&lt;div&gt;&lt;br&gt;&lt;/div&gt;&lt;div&gt;&lt;br&gt;&lt;/div&gt;&lt;div&gt;&lt;br&gt;&lt;/div&gt;&lt;div&gt;&lt;br&gt;&lt;/div&gt;&lt;div&gt;&lt;br&gt;&lt;/div&gt;&lt;div&gt;&lt;br&gt;&lt;/div&gt;&lt;div&gt;&lt;br&gt;&lt;/div&gt;" style="shape=folder;fontStyle=1;spacingTop=10;tabWidth=40;tabHeight=14;tabPosition=left;html=1;whiteSpace=wrap;" parent="1" vertex="1">
          <mxGeometry x="450" y="23" width="190" height="160" as="geometry" />
        </mxCell>
        <mxCell id="lJrmNlTLN4UnMx10Zhjj-3" value="&lt;b&gt;IHotelSystem&lt;/b&gt;" style="text;html=1;align=center;verticalAlign=middle;resizable=0;points=[];autosize=1;strokeColor=none;fillColor=none;" parent="1" vertex="1">
          <mxGeometry x="270" y="88" width="100" height="30" as="geometry" />
        </mxCell>
        <mxCell id="lJrmNlTLN4UnMx10Zhjj-4" value="&lt;p style=&quot;margin:0px;margin-top:4px;text-align:center;&quot;&gt;&lt;b&gt;&amp;lt;&amp;lt;subsystem proxy&amp;gt;&amp;gt;&lt;/b&gt;&lt;/p&gt;&lt;p style=&quot;margin:0px;margin-top:4px;text-align:center;&quot;&gt;&lt;b&gt;&lt;br&gt;&lt;/b&gt;&lt;/p&gt;&lt;hr size=&quot;1&quot; style=&quot;border-style:solid;&quot;&gt;&lt;p style=&quot;margin:0px;margin-left:4px;&quot;&gt;&lt;br&gt;&lt;/p&gt;&lt;hr size=&quot;1&quot; style=&quot;border-style:solid;&quot;&gt;&lt;p style=&quot;margin:0px;margin-left:4px;&quot;&gt;&lt;br&gt;&lt;/p&gt;" style="verticalAlign=top;align=left;overflow=fill;html=1;whiteSpace=wrap;" parent="1" vertex="1">
          <mxGeometry x="465" y="80" width="160" height="92" as="geometry" />
        </mxCell>
      </root>
    </mxGraphModel>
  </diagram>
  <diagram id="hmmjvEVG5ufRdfJFHQ-u" name="SignInProcessModel">
    <mxGraphModel dx="953" dy="546" grid="1" gridSize="10" guides="1" tooltips="1" connect="1" arrows="1" fold="1" page="1" pageScale="1" pageWidth="850" pageHeight="1100" math="0" shadow="0">
      <root>
        <mxCell id="0" />
        <mxCell id="1" parent="0" />
        <mxCell id="y3_Y0QaDvsjgaMqDdPiY-1" value="&amp;lt;&amp;lt;boundary&amp;gt;&amp;gt;&lt;div&gt;SignInForm&lt;/div&gt;&lt;div&gt;(from Presentation Layer)&lt;/div&gt;" style="whiteSpace=wrap;html=1;" vertex="1" parent="1">
          <mxGeometry x="65" y="70" width="150" height="60" as="geometry" />
        </mxCell>
        <mxCell id="y3_Y0QaDvsjgaMqDdPiY-2" style="edgeStyle=orthogonalEdgeStyle;rounded=0;orthogonalLoop=1;jettySize=auto;html=1;exitX=0.5;exitY=1;exitDx=0;exitDy=0;entryX=0.5;entryY=0;entryDx=0;entryDy=0;dashed=1;dashPattern=8 8;" edge="1" parent="1" source="y3_Y0QaDvsjgaMqDdPiY-4" target="y3_Y0QaDvsjgaMqDdPiY-21">
          <mxGeometry relative="1" as="geometry">
            <mxPoint x="410" y="210" as="targetPoint" />
          </mxGeometry>
        </mxCell>
        <mxCell id="y3_Y0QaDvsjgaMqDdPiY-3" style="edgeStyle=orthogonalEdgeStyle;rounded=0;orthogonalLoop=1;jettySize=auto;html=1;exitX=0;exitY=0.5;exitDx=0;exitDy=0;entryX=1;entryY=0.5;entryDx=0;entryDy=0;endArrow=classic;endFill=1;startArrow=diamondThin;startFill=1;" edge="1" parent="1" source="y3_Y0QaDvsjgaMqDdPiY-4" target="y3_Y0QaDvsjgaMqDdPiY-1">
          <mxGeometry relative="1" as="geometry" />
        </mxCell>
        <mxCell id="y3_Y0QaDvsjgaMqDdPiY-4" value="&amp;lt;&amp;lt;process&amp;gt;&amp;gt;&lt;div&gt;SignInApplication&lt;/div&gt;" style="whiteSpace=wrap;html=1;" vertex="1" parent="1">
          <mxGeometry x="335" y="70" width="150" height="60" as="geometry" />
        </mxCell>
        <mxCell id="y3_Y0QaDvsjgaMqDdPiY-5" style="edgeStyle=orthogonalEdgeStyle;rounded=0;orthogonalLoop=1;jettySize=auto;html=1;exitX=0.5;exitY=1;exitDx=0;exitDy=0;startArrow=diamondThin;startFill=1;" edge="1" parent="1" source="y3_Y0QaDvsjgaMqDdPiY-7">
          <mxGeometry relative="1" as="geometry">
            <mxPoint x="409.7586206896551" y="509.9999999999999" as="targetPoint" />
          </mxGeometry>
        </mxCell>
        <mxCell id="y3_Y0QaDvsjgaMqDdPiY-6" style="edgeStyle=orthogonalEdgeStyle;rounded=0;orthogonalLoop=1;jettySize=auto;html=1;exitX=1;exitY=0.5;exitDx=0;exitDy=0;startArrow=diamondThin;startFill=1;" edge="1" parent="1" target="y3_Y0QaDvsjgaMqDdPiY-13">
          <mxGeometry relative="1" as="geometry">
            <mxPoint x="605" y="250.0689655172414" as="targetPoint" />
            <mxPoint x="505" y="250" as="sourcePoint" />
          </mxGeometry>
        </mxCell>
        <mxCell id="y3_Y0QaDvsjgaMqDdPiY-7" value="&amp;lt;&amp;lt;process&amp;gt;&amp;gt;&lt;div&gt;AuthenticationSystemAccess&lt;/div&gt;" style="whiteSpace=wrap;html=1;" vertex="1" parent="1">
          <mxGeometry x="315" y="370" width="190" height="60" as="geometry" />
        </mxCell>
        <mxCell id="y3_Y0QaDvsjgaMqDdPiY-8" value="1" style="text;html=1;align=center;verticalAlign=middle;resizable=0;points=[];autosize=1;strokeColor=none;fillColor=none;" vertex="1" parent="1">
          <mxGeometry x="215" y="70" width="30" height="30" as="geometry" />
        </mxCell>
        <mxCell id="y3_Y0QaDvsjgaMqDdPiY-9" value="1" style="text;html=1;align=center;verticalAlign=middle;resizable=0;points=[];autosize=1;strokeColor=none;fillColor=none;" vertex="1" parent="1">
          <mxGeometry x="305" y="70" width="30" height="30" as="geometry" />
        </mxCell>
        <mxCell id="y3_Y0QaDvsjgaMqDdPiY-10" style="edgeStyle=orthogonalEdgeStyle;rounded=0;orthogonalLoop=1;jettySize=auto;html=1;exitX=1;exitY=0.5;exitDx=0;exitDy=0;endArrow=circle;endFill=0;" edge="1" parent="1" source="y3_Y0QaDvsjgaMqDdPiY-11">
          <mxGeometry relative="1" as="geometry">
            <mxPoint x="705" y="540" as="targetPoint" />
          </mxGeometry>
        </mxCell>
        <mxCell id="y3_Y0QaDvsjgaMqDdPiY-11" value="&amp;lt;&amp;lt;subsystem proxy&amp;gt;&amp;gt;&lt;div&gt;AuthenticationSystem&lt;/div&gt;&lt;div&gt;(from Business Layer)&lt;br&gt;&lt;/div&gt;" style="whiteSpace=wrap;html=1;" vertex="1" parent="1">
          <mxGeometry x="315" y="510" width="190" height="60" as="geometry" />
        </mxCell>
        <mxCell id="y3_Y0QaDvsjgaMqDdPiY-12" style="edgeStyle=orthogonalEdgeStyle;rounded=0;orthogonalLoop=1;jettySize=auto;html=1;exitX=0.5;exitY=1;exitDx=0;exitDy=0;" edge="1" parent="1" source="y3_Y0QaDvsjgaMqDdPiY-13">
          <mxGeometry relative="1" as="geometry">
            <mxPoint x="700.3333333333335" y="530.0000000000001" as="targetPoint" />
          </mxGeometry>
        </mxCell>
        <mxCell id="y3_Y0QaDvsjgaMqDdPiY-13" value="&amp;lt;&amp;lt;control&amp;gt;&amp;gt;&lt;div&gt;AuthenticationController&lt;/div&gt;&lt;div&gt;(from Business Layer)&lt;br&gt;&lt;/div&gt;" style="rounded=0;whiteSpace=wrap;html=1;" vertex="1" parent="1">
          <mxGeometry x="615" y="220" width="170" height="60" as="geometry" />
        </mxCell>
        <mxCell id="y3_Y0QaDvsjgaMqDdPiY-14" value="1" style="text;html=1;align=center;verticalAlign=middle;resizable=0;points=[];autosize=1;strokeColor=none;fillColor=none;" vertex="1" parent="1">
          <mxGeometry x="505" y="220" width="30" height="30" as="geometry" />
        </mxCell>
        <mxCell id="y3_Y0QaDvsjgaMqDdPiY-15" value="1" style="text;html=1;align=center;verticalAlign=middle;resizable=0;points=[];autosize=1;strokeColor=none;fillColor=none;" vertex="1" parent="1">
          <mxGeometry x="585" y="220" width="30" height="30" as="geometry" />
        </mxCell>
        <mxCell id="y3_Y0QaDvsjgaMqDdPiY-16" value="IAuthenticationSystem&lt;div&gt;&lt;span style=&quot;text-wrap: wrap;&quot;&gt;(from Business Layer)&lt;/span&gt;&lt;br&gt;&lt;/div&gt;" style="text;html=1;align=center;verticalAlign=middle;resizable=0;points=[];autosize=1;strokeColor=none;fillColor=none;fontStyle=0" vertex="1" parent="1">
          <mxGeometry x="630" y="550" width="140" height="40" as="geometry" />
        </mxCell>
        <mxCell id="y3_Y0QaDvsjgaMqDdPiY-17" value="0..1" style="text;html=1;align=center;verticalAlign=middle;resizable=0;points=[];autosize=1;strokeColor=none;fillColor=none;" vertex="1" parent="1">
          <mxGeometry x="655" y="280" width="40" height="30" as="geometry" />
        </mxCell>
        <mxCell id="y3_Y0QaDvsjgaMqDdPiY-18" value="0..1" style="text;html=1;align=center;verticalAlign=middle;resizable=0;points=[];autosize=1;strokeColor=none;fillColor=none;" vertex="1" parent="1">
          <mxGeometry x="655" y="500" width="40" height="30" as="geometry" />
        </mxCell>
        <mxCell id="y3_Y0QaDvsjgaMqDdPiY-19" value="1" style="text;html=1;align=center;verticalAlign=middle;resizable=0;points=[];autosize=1;strokeColor=none;fillColor=none;" vertex="1" parent="1">
          <mxGeometry x="410" y="430" width="30" height="30" as="geometry" />
        </mxCell>
        <mxCell id="y3_Y0QaDvsjgaMqDdPiY-20" value="1" style="text;html=1;align=center;verticalAlign=middle;resizable=0;points=[];autosize=1;strokeColor=none;fillColor=none;" vertex="1" parent="1">
          <mxGeometry x="410" y="480" width="30" height="30" as="geometry" />
        </mxCell>
        <mxCell id="y3_Y0QaDvsjgaMqDdPiY-21" value="&amp;lt;&amp;lt;process&amp;gt;&amp;gt;&lt;div&gt;AuthenticationController&lt;span style=&quot;background-color: initial;&quot;&gt;Access&lt;/span&gt;&lt;/div&gt;" style="whiteSpace=wrap;html=1;" vertex="1" parent="1">
          <mxGeometry x="315" y="220" width="190" height="60" as="geometry" />
        </mxCell>
        <mxCell id="y3_Y0QaDvsjgaMqDdPiY-22" style="edgeStyle=orthogonalEdgeStyle;rounded=0;orthogonalLoop=1;jettySize=auto;html=1;exitX=0.5;exitY=1;exitDx=0;exitDy=0;entryX=0.5;entryY=0;entryDx=0;entryDy=0;dashed=1;dashPattern=8 8;" edge="1" parent="1" source="y3_Y0QaDvsjgaMqDdPiY-21" target="y3_Y0QaDvsjgaMqDdPiY-7">
          <mxGeometry relative="1" as="geometry">
            <mxPoint x="420" y="230" as="targetPoint" />
            <mxPoint x="420" y="140" as="sourcePoint" />
          </mxGeometry>
        </mxCell>
      </root>
    </mxGraphModel>
  </diagram>
  <diagram id="l_ztS5hvQTjva_RshvH7" name="SignUpProcessModel">
    <mxGraphModel dx="1143" dy="655" grid="1" gridSize="10" guides="1" tooltips="1" connect="1" arrows="1" fold="1" page="1" pageScale="1" pageWidth="850" pageHeight="1100" math="0" shadow="0">
      <root>
        <mxCell id="0" />
        <mxCell id="1" parent="0" />
        <mxCell id="--R_FmZE25kGNvgwZLrh-1" value="&amp;lt;&amp;lt;boundary&amp;gt;&amp;gt;&lt;div&gt;SignUpForm&lt;/div&gt;&lt;div&gt;(from Presentation Layer)&lt;/div&gt;" style="whiteSpace=wrap;html=1;" vertex="1" parent="1">
          <mxGeometry x="65" y="70" width="150" height="60" as="geometry" />
        </mxCell>
        <mxCell id="--R_FmZE25kGNvgwZLrh-2" style="edgeStyle=orthogonalEdgeStyle;rounded=0;orthogonalLoop=1;jettySize=auto;html=1;exitX=0.5;exitY=1;exitDx=0;exitDy=0;entryX=0.5;entryY=0;entryDx=0;entryDy=0;dashed=1;dashPattern=8 8;" edge="1" parent="1" source="--R_FmZE25kGNvgwZLrh-4" target="1GFi7BEye5dosbZ-1cLT-1">
          <mxGeometry relative="1" as="geometry">
            <mxPoint x="410" y="210" as="targetPoint" />
          </mxGeometry>
        </mxCell>
        <mxCell id="--R_FmZE25kGNvgwZLrh-3" style="edgeStyle=orthogonalEdgeStyle;rounded=0;orthogonalLoop=1;jettySize=auto;html=1;exitX=0;exitY=0.5;exitDx=0;exitDy=0;entryX=1;entryY=0.5;entryDx=0;entryDy=0;endArrow=classic;endFill=1;startArrow=diamondThin;startFill=1;" edge="1" parent="1" source="--R_FmZE25kGNvgwZLrh-4" target="--R_FmZE25kGNvgwZLrh-1">
          <mxGeometry relative="1" as="geometry" />
        </mxCell>
        <mxCell id="--R_FmZE25kGNvgwZLrh-4" value="&amp;lt;&amp;lt;process&amp;gt;&amp;gt;&lt;div&gt;SignUpApplication&lt;/div&gt;" style="whiteSpace=wrap;html=1;" vertex="1" parent="1">
          <mxGeometry x="335" y="70" width="150" height="60" as="geometry" />
        </mxCell>
        <mxCell id="--R_FmZE25kGNvgwZLrh-5" style="edgeStyle=orthogonalEdgeStyle;rounded=0;orthogonalLoop=1;jettySize=auto;html=1;exitX=0.5;exitY=1;exitDx=0;exitDy=0;startArrow=diamondThin;startFill=1;" edge="1" parent="1" source="--R_FmZE25kGNvgwZLrh-7">
          <mxGeometry relative="1" as="geometry">
            <mxPoint x="409.7586206896551" y="509.9999999999999" as="targetPoint" />
          </mxGeometry>
        </mxCell>
        <mxCell id="--R_FmZE25kGNvgwZLrh-6" style="edgeStyle=orthogonalEdgeStyle;rounded=0;orthogonalLoop=1;jettySize=auto;html=1;exitX=1;exitY=0.5;exitDx=0;exitDy=0;startArrow=diamondThin;startFill=1;" edge="1" parent="1" target="--R_FmZE25kGNvgwZLrh-13">
          <mxGeometry relative="1" as="geometry">
            <mxPoint x="605" y="250.0689655172414" as="targetPoint" />
            <mxPoint x="505" y="250" as="sourcePoint" />
          </mxGeometry>
        </mxCell>
        <mxCell id="--R_FmZE25kGNvgwZLrh-7" value="&amp;lt;&amp;lt;process&amp;gt;&amp;gt;&lt;div&gt;AuthenticationSystemAccess&lt;/div&gt;" style="whiteSpace=wrap;html=1;" vertex="1" parent="1">
          <mxGeometry x="315" y="370" width="190" height="60" as="geometry" />
        </mxCell>
        <mxCell id="--R_FmZE25kGNvgwZLrh-8" value="1" style="text;html=1;align=center;verticalAlign=middle;resizable=0;points=[];autosize=1;strokeColor=none;fillColor=none;" vertex="1" parent="1">
          <mxGeometry x="215" y="70" width="30" height="30" as="geometry" />
        </mxCell>
        <mxCell id="--R_FmZE25kGNvgwZLrh-9" value="1" style="text;html=1;align=center;verticalAlign=middle;resizable=0;points=[];autosize=1;strokeColor=none;fillColor=none;" vertex="1" parent="1">
          <mxGeometry x="305" y="70" width="30" height="30" as="geometry" />
        </mxCell>
        <mxCell id="--R_FmZE25kGNvgwZLrh-10" style="edgeStyle=orthogonalEdgeStyle;rounded=0;orthogonalLoop=1;jettySize=auto;html=1;exitX=1;exitY=0.5;exitDx=0;exitDy=0;endArrow=circle;endFill=0;" edge="1" parent="1" source="--R_FmZE25kGNvgwZLrh-11">
          <mxGeometry relative="1" as="geometry">
            <mxPoint x="705" y="540" as="targetPoint" />
          </mxGeometry>
        </mxCell>
        <mxCell id="--R_FmZE25kGNvgwZLrh-11" value="&amp;lt;&amp;lt;subsystem proxy&amp;gt;&amp;gt;&lt;div&gt;AuthenticationSystem&lt;/div&gt;&lt;div&gt;(from Business Layer)&lt;br&gt;&lt;/div&gt;" style="whiteSpace=wrap;html=1;" vertex="1" parent="1">
          <mxGeometry x="315" y="510" width="190" height="60" as="geometry" />
        </mxCell>
        <mxCell id="--R_FmZE25kGNvgwZLrh-12" style="edgeStyle=orthogonalEdgeStyle;rounded=0;orthogonalLoop=1;jettySize=auto;html=1;exitX=0.5;exitY=1;exitDx=0;exitDy=0;" edge="1" parent="1" source="--R_FmZE25kGNvgwZLrh-13">
          <mxGeometry relative="1" as="geometry">
            <mxPoint x="700.3333333333335" y="530.0000000000001" as="targetPoint" />
          </mxGeometry>
        </mxCell>
        <mxCell id="--R_FmZE25kGNvgwZLrh-13" value="&amp;lt;&amp;lt;control&amp;gt;&amp;gt;&lt;div&gt;AuthenticationController&lt;/div&gt;&lt;div&gt;(from Business Layer)&lt;br&gt;&lt;/div&gt;" style="rounded=0;whiteSpace=wrap;html=1;" vertex="1" parent="1">
          <mxGeometry x="615" y="220" width="170" height="60" as="geometry" />
        </mxCell>
        <mxCell id="--R_FmZE25kGNvgwZLrh-14" value="1" style="text;html=1;align=center;verticalAlign=middle;resizable=0;points=[];autosize=1;strokeColor=none;fillColor=none;" vertex="1" parent="1">
          <mxGeometry x="505" y="220" width="30" height="30" as="geometry" />
        </mxCell>
        <mxCell id="--R_FmZE25kGNvgwZLrh-15" value="1" style="text;html=1;align=center;verticalAlign=middle;resizable=0;points=[];autosize=1;strokeColor=none;fillColor=none;" vertex="1" parent="1">
          <mxGeometry x="585" y="220" width="30" height="30" as="geometry" />
        </mxCell>
        <mxCell id="--R_FmZE25kGNvgwZLrh-16" value="IAuthenticationSystem&lt;div&gt;&lt;span style=&quot;text-wrap: wrap;&quot;&gt;(from Business Layer)&lt;/span&gt;&lt;br&gt;&lt;/div&gt;" style="text;html=1;align=center;verticalAlign=middle;resizable=0;points=[];autosize=1;strokeColor=none;fillColor=none;fontStyle=0" vertex="1" parent="1">
          <mxGeometry x="630" y="550" width="140" height="40" as="geometry" />
        </mxCell>
        <mxCell id="--R_FmZE25kGNvgwZLrh-17" value="0..1" style="text;html=1;align=center;verticalAlign=middle;resizable=0;points=[];autosize=1;strokeColor=none;fillColor=none;" vertex="1" parent="1">
          <mxGeometry x="655" y="280" width="40" height="30" as="geometry" />
        </mxCell>
        <mxCell id="--R_FmZE25kGNvgwZLrh-18" value="0..1" style="text;html=1;align=center;verticalAlign=middle;resizable=0;points=[];autosize=1;strokeColor=none;fillColor=none;" vertex="1" parent="1">
          <mxGeometry x="655" y="500" width="40" height="30" as="geometry" />
        </mxCell>
        <mxCell id="--R_FmZE25kGNvgwZLrh-19" value="1" style="text;html=1;align=center;verticalAlign=middle;resizable=0;points=[];autosize=1;strokeColor=none;fillColor=none;" vertex="1" parent="1">
          <mxGeometry x="410" y="430" width="30" height="30" as="geometry" />
        </mxCell>
        <mxCell id="--R_FmZE25kGNvgwZLrh-20" value="1" style="text;html=1;align=center;verticalAlign=middle;resizable=0;points=[];autosize=1;strokeColor=none;fillColor=none;" vertex="1" parent="1">
          <mxGeometry x="410" y="480" width="30" height="30" as="geometry" />
        </mxCell>
        <mxCell id="1GFi7BEye5dosbZ-1cLT-1" value="&amp;lt;&amp;lt;process&amp;gt;&amp;gt;&lt;div&gt;AuthenticationController&lt;span style=&quot;background-color: initial;&quot;&gt;Access&lt;/span&gt;&lt;/div&gt;" style="whiteSpace=wrap;html=1;" vertex="1" parent="1">
          <mxGeometry x="315" y="220" width="190" height="60" as="geometry" />
        </mxCell>
        <mxCell id="1GFi7BEye5dosbZ-1cLT-2" style="edgeStyle=orthogonalEdgeStyle;rounded=0;orthogonalLoop=1;jettySize=auto;html=1;exitX=0.5;exitY=1;exitDx=0;exitDy=0;entryX=0.5;entryY=0;entryDx=0;entryDy=0;dashed=1;dashPattern=8 8;" edge="1" parent="1" source="1GFi7BEye5dosbZ-1cLT-1" target="--R_FmZE25kGNvgwZLrh-7">
          <mxGeometry relative="1" as="geometry">
            <mxPoint x="420" y="230" as="targetPoint" />
            <mxPoint x="420" y="140" as="sourcePoint" />
          </mxGeometry>
        </mxCell>
      </root>
    </mxGraphModel>
  </diagram>
</mxfile>
